<mxfile host="65bd71144e">
    <diagram id="hcqRvHeK4_I1yotb0Jn9" name="第 1 页">
        <mxGraphModel dx="1055" dy="572" grid="1" gridSize="10" guides="1" tooltips="1" connect="1" arrows="1" fold="1" page="1" pageScale="1" pageWidth="827" pageHeight="1169" math="0" shadow="0">
            <root>
                <mxCell id="0"/>
                <mxCell id="1" parent="0"/>
                <mxCell id="9" style="edgeStyle=none;html=1;" edge="1" parent="1">
                    <mxGeometry relative="1" as="geometry">
                        <mxPoint x="330" y="209.5" as="sourcePoint"/>
                        <mxPoint x="400" y="210" as="targetPoint"/>
                    </mxGeometry>
                </mxCell>
                <mxCell id="2" value="选课系统" style="html=1;dashed=0;whitespace=wrap;shape=mxgraph.dfd.start" parent="1" vertex="1">
                    <mxGeometry x="220" y="126.88" width="110" height="166.25" as="geometry"/>
                </mxCell>
                <mxCell id="5" value="管理员" style="html=1;dashed=0;whitespace=wrap;" vertex="1" parent="1">
                    <mxGeometry x="60" y="170" width="100" height="75" as="geometry"/>
                </mxCell>
                <mxCell id="6" value="老师" style="html=1;dashed=0;whitespace=wrap;" vertex="1" parent="1">
                    <mxGeometry x="225" y="320" width="100" height="75" as="geometry"/>
                </mxCell>
                <mxCell id="7" value="学生" style="html=1;dashed=0;whitespace=wrap;" vertex="1" parent="1">
                    <mxGeometry x="400" y="161.25" width="100" height="87.5" as="geometry"/>
                </mxCell>
                <mxCell id="12" value="" style="endArrow=classic;html=1;" edge="1" parent="1">
                    <mxGeometry width="50" height="50" relative="1" as="geometry">
                        <mxPoint x="400" y="240" as="sourcePoint"/>
                        <mxPoint x="325" y="240" as="targetPoint"/>
                    </mxGeometry>
                </mxCell>
                <mxCell id="13" value="课程信息" style="text;html=1;align=center;verticalAlign=middle;resizable=0;points=[];autosize=1;strokeColor=none;fillColor=none;" vertex="1" parent="1">
                    <mxGeometry x="325" y="190" width="70" height="30" as="geometry"/>
                </mxCell>
                <mxCell id="14" value="" style="endArrow=classic;html=1;" edge="1" parent="1">
                    <mxGeometry width="50" height="50" relative="1" as="geometry">
                        <mxPoint x="320" y="174.5" as="sourcePoint"/>
                        <mxPoint x="400" y="175" as="targetPoint"/>
                    </mxGeometry>
                </mxCell>
                <mxCell id="15" value="选课结果" style="text;html=1;align=center;verticalAlign=middle;resizable=0;points=[];autosize=1;strokeColor=none;fillColor=none;" vertex="1" parent="1">
                    <mxGeometry x="320" y="150" width="70" height="30" as="geometry"/>
                </mxCell>
                <mxCell id="17" value="选课信息" style="text;html=1;align=center;verticalAlign=middle;resizable=0;points=[];autosize=1;strokeColor=none;fillColor=none;" vertex="1" parent="1">
                    <mxGeometry x="330" y="240" width="70" height="30" as="geometry"/>
                </mxCell>
                <mxCell id="19" value="选课结果" style="text;html=1;align=center;verticalAlign=middle;resizable=0;points=[];autosize=1;strokeColor=none;fillColor=none;" vertex="1" parent="1">
                    <mxGeometry x="160" y="195" width="70" height="30" as="geometry"/>
                </mxCell>
                <mxCell id="20" value="排课结果" style="text;html=1;align=center;verticalAlign=middle;resizable=0;points=[];autosize=1;strokeColor=none;fillColor=none;" vertex="1" parent="1">
                    <mxGeometry x="160" y="160" width="70" height="30" as="geometry"/>
                </mxCell>
                <mxCell id="21" value="教师反馈" style="text;html=1;align=center;verticalAlign=middle;resizable=0;points=[];autosize=1;strokeColor=none;fillColor=none;" vertex="1" parent="1">
                    <mxGeometry x="160" y="245" width="70" height="30" as="geometry"/>
                </mxCell>
                <mxCell id="22" value="" style="edgeStyle=none;orthogonalLoop=1;jettySize=auto;html=1;" edge="1" parent="1">
                    <mxGeometry width="100" relative="1" as="geometry">
                        <mxPoint x="160" y="180" as="sourcePoint"/>
                        <mxPoint x="230" y="180" as="targetPoint"/>
                        <Array as="points"/>
                    </mxGeometry>
                </mxCell>
                <mxCell id="26" value="" style="edgeStyle=none;orthogonalLoop=1;jettySize=auto;html=1;" edge="1" parent="1">
                    <mxGeometry width="100" relative="1" as="geometry">
                        <mxPoint x="230" y="245" as="sourcePoint"/>
                        <mxPoint x="160" y="245" as="targetPoint"/>
                        <Array as="points"/>
                    </mxGeometry>
                </mxCell>
                <mxCell id="27" value="" style="edgeStyle=none;orthogonalLoop=1;jettySize=auto;html=1;" edge="1" parent="1">
                    <mxGeometry width="100" relative="1" as="geometry">
                        <mxPoint x="220" y="220" as="sourcePoint"/>
                        <mxPoint x="160" y="220" as="targetPoint"/>
                        <Array as="points"/>
                    </mxGeometry>
                </mxCell>
                <mxCell id="28" value="" style="endArrow=classic;html=1;" edge="1" parent="1">
                    <mxGeometry width="50" height="50" relative="1" as="geometry">
                        <mxPoint x="300" y="320" as="sourcePoint"/>
                        <mxPoint x="300" y="260" as="targetPoint"/>
                    </mxGeometry>
                </mxCell>
                <mxCell id="31" value="" style="endArrow=classic;html=1;" edge="1" parent="1">
                    <mxGeometry width="50" height="50" relative="1" as="geometry">
                        <mxPoint x="250" y="260" as="sourcePoint"/>
                        <mxPoint x="250" y="320" as="targetPoint"/>
                    </mxGeometry>
                </mxCell>
                <mxCell id="32" value="排&lt;br&gt;课&lt;br&gt;结&lt;br&gt;果" style="text;html=1;align=center;verticalAlign=middle;resizable=0;points=[];autosize=1;strokeColor=none;fillColor=none;" vertex="1" parent="1">
                    <mxGeometry x="220" y="253.75" width="40" height="70" as="geometry"/>
                </mxCell>
                <mxCell id="33" value="教&lt;br&gt;师&lt;br&gt;反&lt;br&gt;馈" style="text;html=1;align=center;verticalAlign=middle;resizable=0;points=[];autosize=1;strokeColor=none;fillColor=none;" vertex="1" parent="1">
                    <mxGeometry x="290" y="256.25" width="40" height="70" as="geometry"/>
                </mxCell>
            </root>
        </mxGraphModel>
    </diagram>
    <diagram id="YE9Iy4oHDs4e5Qc0qp2o" name="第 2 页">
        <mxGraphModel dx="1055" dy="572" grid="1" gridSize="10" guides="1" tooltips="1" connect="1" arrows="1" fold="1" page="1" pageScale="1" pageWidth="827" pageHeight="1169" math="0" shadow="0">
            <root>
                <mxCell id="0"/>
                <mxCell id="1" parent="0"/>
                <mxCell id="SQNl2OP5tdmXHVpa_YLx-2" style="edgeStyle=none;html=1;exitX=1;exitY=0.25;exitDx=0;exitDy=0;entryX=0;entryY=0.332;entryDx=0;entryDy=0;entryPerimeter=0;" edge="1" parent="1" source="VhBVaETjyVOQ5A1mhcuX-3" target="VhBVaETjyVOQ5A1mhcuX-41">
                    <mxGeometry relative="1" as="geometry"/>
                </mxCell>
                <mxCell id="SQNl2OP5tdmXHVpa_YLx-3" style="edgeStyle=none;html=1;exitX=1;exitY=0.75;exitDx=0;exitDy=0;entryX=1;entryY=0.75;entryDx=0;entryDy=0;" edge="1" parent="1" target="VhBVaETjyVOQ5A1mhcuX-3">
                    <mxGeometry relative="1" as="geometry">
                        <mxPoint x="230" y="294" as="sourcePoint"/>
                    </mxGeometry>
                </mxCell>
                <mxCell id="VhBVaETjyVOQ5A1mhcuX-3" value="管理员" style="html=1;dashed=0;whitespace=wrap;" vertex="1" parent="1">
                    <mxGeometry x="90" y="261.25" width="70" height="43.75" as="geometry"/>
                </mxCell>
                <mxCell id="VhBVaETjyVOQ5A1mhcuX-12" value="排课结果" style="text;html=1;align=center;verticalAlign=middle;resizable=0;points=[];autosize=1;strokeColor=none;fillColor=none;" vertex="1" parent="1">
                    <mxGeometry x="160" y="246.25" width="70" height="30" as="geometry"/>
                </mxCell>
                <mxCell id="VhBVaETjyVOQ5A1mhcuX-13" value="教师反馈" style="text;html=1;align=center;verticalAlign=middle;resizable=0;points=[];autosize=1;strokeColor=none;fillColor=none;" vertex="1" parent="1">
                    <mxGeometry x="160" y="289.38" width="70" height="30" as="geometry"/>
                </mxCell>
                <mxCell id="VhBVaETjyVOQ5A1mhcuX-20" value="教&lt;br&gt;师&lt;br&gt;反&lt;br&gt;馈" style="text;html=1;align=center;verticalAlign=middle;resizable=0;points=[];autosize=1;strokeColor=none;fillColor=none;" vertex="1" parent="1">
                    <mxGeometry x="270" y="319.38" width="40" height="70" as="geometry"/>
                </mxCell>
                <mxCell id="VhBVaETjyVOQ5A1mhcuX-26" value="" style="endArrow=classic;html=1;" edge="1" parent="1">
                    <mxGeometry width="50" height="50" relative="1" as="geometry">
                        <mxPoint x="500" y="289.38" as="sourcePoint"/>
                        <mxPoint x="440" y="289.38" as="targetPoint"/>
                    </mxGeometry>
                </mxCell>
                <mxCell id="VhBVaETjyVOQ5A1mhcuX-28" value="" style="endArrow=classic;html=1;" edge="1" parent="1">
                    <mxGeometry width="50" height="50" relative="1" as="geometry">
                        <mxPoint x="437.5" y="273.88" as="sourcePoint"/>
                        <mxPoint x="500" y="274" as="targetPoint"/>
                    </mxGeometry>
                </mxCell>
                <mxCell id="VhBVaETjyVOQ5A1mhcuX-29" value="选课结果" style="text;html=1;align=center;verticalAlign=middle;resizable=0;points=[];autosize=1;strokeColor=none;fillColor=none;" vertex="1" parent="1">
                    <mxGeometry x="430" y="248.13" width="70" height="30" as="geometry"/>
                </mxCell>
                <mxCell id="VhBVaETjyVOQ5A1mhcuX-30" value="选课信息" style="text;html=1;align=center;verticalAlign=middle;resizable=0;points=[];autosize=1;strokeColor=none;fillColor=none;" vertex="1" parent="1">
                    <mxGeometry x="436.25" y="289.38" width="70" height="30" as="geometry"/>
                </mxCell>
                <mxCell id="VhBVaETjyVOQ5A1mhcuX-41" value="1&lt;br&gt;课程编排" style="shape=ellipse;html=1;dashed=0;whitespace=wrap;aspect=fixed;perimeter=ellipsePerimeter;" vertex="1" parent="1">
                    <mxGeometry x="230" y="250" width="66.25" height="66.25" as="geometry"/>
                </mxCell>
                <mxCell id="5aWi-8BCkYc4vYFJrScl-2" value="2&lt;br&gt;学生选课" style="shape=ellipse;html=1;dashed=0;whitespace=wrap;aspect=fixed;perimeter=ellipsePerimeter;" vertex="1" parent="1">
                    <mxGeometry x="370" y="248.13" width="66.25" height="66.25" as="geometry"/>
                </mxCell>
                <mxCell id="SQNl2OP5tdmXHVpa_YLx-5" style="edgeStyle=none;html=1;exitX=0.25;exitY=0;exitDx=0;exitDy=0;entryX=0.25;entryY=0;entryDx=0;entryDy=0;" edge="1" parent="1" target="5aWi-8BCkYc4vYFJrScl-3">
                    <mxGeometry relative="1" as="geometry">
                        <mxPoint x="248" y="320" as="sourcePoint"/>
                    </mxGeometry>
                </mxCell>
                <mxCell id="SQNl2OP5tdmXHVpa_YLx-6" style="edgeStyle=none;html=1;entryX=0.75;entryY=0;entryDx=0;entryDy=0;exitX=0.75;exitY=0;exitDx=0;exitDy=0;" edge="1" parent="1" source="5aWi-8BCkYc4vYFJrScl-3">
                    <mxGeometry relative="1" as="geometry">
                        <mxPoint x="283" y="320" as="targetPoint"/>
                    </mxGeometry>
                </mxCell>
                <mxCell id="5aWi-8BCkYc4vYFJrScl-3" value="老师" style="html=1;dashed=0;whitespace=wrap;" vertex="1" parent="1">
                    <mxGeometry x="230" y="396.25" width="70" height="43.75" as="geometry"/>
                </mxCell>
                <mxCell id="5aWi-8BCkYc4vYFJrScl-4" value="学生" style="html=1;dashed=0;whitespace=wrap;" vertex="1" parent="1">
                    <mxGeometry x="500" y="256.88" width="70" height="43.75" as="geometry"/>
                </mxCell>
                <mxCell id="5aWi-8BCkYc4vYFJrScl-9" style="edgeStyle=none;html=1;entryX=0.5;entryY=0;entryDx=0;entryDy=0;exitX=0.5;exitY=1;exitDx=0;exitDy=0;" edge="1" parent="1" source="zb4FdeY55klrME0iyJRI-1" target="VhBVaETjyVOQ5A1mhcuX-41">
                    <mxGeometry relative="1" as="geometry">
                        <mxPoint x="280" y="200" as="sourcePoint"/>
                    </mxGeometry>
                </mxCell>
                <mxCell id="5aWi-8BCkYc4vYFJrScl-12" value="" style="endArrow=classic;html=1;entryX=0;entryY=0.5;entryDx=0;entryDy=0;" edge="1" parent="1" target="5aWi-8BCkYc4vYFJrScl-2">
                    <mxGeometry width="50" height="50" relative="1" as="geometry">
                        <mxPoint x="296.25" y="282.63" as="sourcePoint"/>
                        <mxPoint x="366.25" y="282.63" as="targetPoint"/>
                    </mxGeometry>
                </mxCell>
                <mxCell id="5aWi-8BCkYc4vYFJrScl-13" value="选课通知" style="text;html=1;align=center;verticalAlign=middle;resizable=0;points=[];autosize=1;strokeColor=none;fillColor=none;" vertex="1" parent="1">
                    <mxGeometry x="300" y="259.38" width="70" height="30" as="geometry"/>
                </mxCell>
                <mxCell id="f8Be7X3YM7PUmNdDe41V-1" value="排&lt;br&gt;课&lt;br&gt;结&lt;br&gt;果" style="text;html=1;align=center;verticalAlign=middle;resizable=0;points=[];autosize=1;strokeColor=none;fillColor=none;" vertex="1" parent="1">
                    <mxGeometry x="220.00000000000006" y="330" width="40" height="70" as="geometry"/>
                </mxCell>
                <mxCell id="zb4FdeY55klrME0iyJRI-1" value="&lt;span style=&quot;text-align: center;&quot;&gt;F1&amp;nbsp; &amp;nbsp; 老师、学生、教室信息&lt;/span&gt;" style="html=1;dashed=0;whitespace=wrap;shape=mxgraph.dfd.dataStoreID;align=left;spacingLeft=3;points=[[0,0],[0.5,0],[1,0],[0,0.5],[1,0.5],[0,1],[0.5,1],[1,1]];" vertex="1" parent="1">
                    <mxGeometry x="183.12" y="170" width="160" height="30" as="geometry"/>
                </mxCell>
            </root>
        </mxGraphModel>
    </diagram>
    <diagram id="-Eec4C62HxKJM_4bUooL" name="第 3 页">
        <mxGraphModel dx="1055" dy="572" grid="1" gridSize="10" guides="1" tooltips="1" connect="1" arrows="1" fold="1" page="1" pageScale="1" pageWidth="827" pageHeight="1169" math="0" shadow="0">
            <root>
                <mxCell id="0"/>
                <mxCell id="1" parent="0"/>
                <mxCell id="Mcvqnx853z0XUar6k2le-1" style="edgeStyle=none;html=1;entryX=0;entryY=0.332;entryDx=0;entryDy=0;entryPerimeter=0;" edge="1" parent="1">
                    <mxGeometry relative="1" as="geometry">
                        <mxPoint x="160" y="285.76" as="sourcePoint"/>
                        <mxPoint x="230" y="285.755" as="targetPoint"/>
                    </mxGeometry>
                </mxCell>
                <mxCell id="Mcvqnx853z0XUar6k2le-3" value="管理员" style="html=1;dashed=0;whitespace=wrap;" vertex="1" parent="1">
                    <mxGeometry x="90" y="264.38" width="70" height="43.75" as="geometry"/>
                </mxCell>
                <mxCell id="Mcvqnx853z0XUar6k2le-4" value="初次排课" style="text;html=1;align=center;verticalAlign=middle;resizable=0;points=[];autosize=1;strokeColor=none;fillColor=none;" vertex="1" parent="1">
                    <mxGeometry x="160" y="259.38" width="70" height="30" as="geometry"/>
                </mxCell>
                <mxCell id="x4gaPoegwlLemnVy_RXM-5" style="edgeStyle=none;html=1;exitX=0.5;exitY=0;exitDx=0;exitDy=0;entryX=0.5;entryY=1;entryDx=0;entryDy=0;" edge="1" parent="1" source="Mcvqnx853z0XUar6k2le-16" target="x4gaPoegwlLemnVy_RXM-3">
                    <mxGeometry relative="1" as="geometry"/>
                </mxCell>
                <mxCell id="Mcvqnx853z0XUar6k2le-16" value="教师" style="html=1;dashed=0;whitespace=wrap;" vertex="1" parent="1">
                    <mxGeometry x="395" y="357.51" width="70" height="43.75" as="geometry"/>
                </mxCell>
                <mxCell id="Mcvqnx853z0XUar6k2le-17" style="edgeStyle=none;html=1;exitX=0.5;exitY=1;exitDx=0;exitDy=0;entryX=0.5;entryY=0;entryDx=0;entryDy=0;" edge="1" parent="1" source="Mcvqnx853z0XUar6k2le-24">
                    <mxGeometry relative="1" as="geometry">
                        <mxPoint x="263.125" y="250" as="targetPoint"/>
                    </mxGeometry>
                </mxCell>
                <mxCell id="x4gaPoegwlLemnVy_RXM-2" style="edgeStyle=none;html=1;exitX=1;exitY=0.5;exitDx=0;exitDy=0;entryX=0;entryY=0.5;entryDx=0;entryDy=0;" edge="1" parent="1" source="Mcvqnx853z0XUar6k2le-23" target="x4gaPoegwlLemnVy_RXM-3">
                    <mxGeometry relative="1" as="geometry">
                        <mxPoint x="370" y="286" as="targetPoint"/>
                    </mxGeometry>
                </mxCell>
                <mxCell id="Mcvqnx853z0XUar6k2le-23" value="1.1&lt;br&gt;专业课编排" style="shape=ellipse;html=1;dashed=0;whitespace=wrap;aspect=fixed;perimeter=ellipsePerimeter;" vertex="1" parent="1">
                    <mxGeometry x="230" y="253.13" width="66.25" height="66.25" as="geometry"/>
                </mxCell>
                <mxCell id="Mcvqnx853z0XUar6k2le-24" value="&lt;span style=&quot;text-align: center;&quot;&gt;F1&amp;nbsp; &amp;nbsp; 老师、学生、教室信息&lt;/span&gt;" style="html=1;dashed=0;whitespace=wrap;shape=mxgraph.dfd.dataStoreID;align=left;spacingLeft=3;points=[[0,0],[0.5,0],[1,0],[0,0.5],[1,0.5],[0,1],[0.5,1],[1,1]];" vertex="1" parent="1">
                    <mxGeometry x="183.12" y="190" width="160" height="30" as="geometry"/>
                </mxCell>
                <mxCell id="vs9djapArbqQAAfcyQcq-6" style="edgeStyle=none;html=1;exitX=0.5;exitY=0;exitDx=0;exitDy=0;entryX=0.5;entryY=1;entryDx=0;entryDy=0;" edge="1" parent="1" source="vs9djapArbqQAAfcyQcq-5" target="Mcvqnx853z0XUar6k2le-23">
                    <mxGeometry relative="1" as="geometry">
                        <mxPoint x="263" y="320" as="targetPoint"/>
                    </mxGeometry>
                </mxCell>
                <mxCell id="vs9djapArbqQAAfcyQcq-5" value="F2&lt;span style=&quot;white-space: pre;&quot;&gt;&#9;&lt;/span&gt;&amp;nbsp;开课清单" style="html=1;dashed=0;whitespace=wrap;shape=mxgraph.dfd.dataStoreID;align=left;spacingLeft=3;points=[[0,0],[0.5,0],[1,0],[0,0.5],[1,0.5],[0,1],[0.5,1],[1,1]];" vertex="1" parent="1">
                    <mxGeometry x="213.13" y="357.51" width="100" height="30" as="geometry"/>
                </mxCell>
                <mxCell id="KjAqAEAvfIFPZOu9WYF2-3" value="教师反馈" style="text;html=1;align=center;verticalAlign=middle;resizable=0;points=[];autosize=1;strokeColor=none;fillColor=none;" vertex="1" parent="1">
                    <mxGeometry x="421.24" y="327.51" width="70" height="30" as="geometry"/>
                </mxCell>
                <mxCell id="KjAqAEAvfIFPZOu9WYF2-9" value="重新排课" style="text;html=1;align=center;verticalAlign=middle;resizable=0;points=[];autosize=1;strokeColor=none;fillColor=none;" vertex="1" parent="1">
                    <mxGeometry x="313.12" y="259.38" width="70" height="30" as="geometry"/>
                </mxCell>
                <mxCell id="lcH_O-FtXqilcOwLD9es-3" value="" style="edgeStyle=none;html=1;entryX=0;entryY=0.5;entryDx=0;entryDy=0;" edge="1" parent="1" source="x4gaPoegwlLemnVy_RXM-3" target="lcH_O-FtXqilcOwLD9es-5">
                    <mxGeometry relative="1" as="geometry">
                        <mxPoint x="504.99" y="286" as="targetPoint"/>
                    </mxGeometry>
                </mxCell>
                <mxCell id="x4gaPoegwlLemnVy_RXM-3" value="1.2&lt;br&gt;课表编排" style="shape=ellipse;html=1;dashed=0;whitespace=wrap;aspect=fixed;perimeter=ellipsePerimeter;" vertex="1" parent="1">
                    <mxGeometry x="396.87" y="253.13" width="66.25" height="66.25" as="geometry"/>
                </mxCell>
                <mxCell id="lcH_O-FtXqilcOwLD9es-5" value="学生" style="html=1;dashed=0;whitespace=wrap;" vertex="1" parent="1">
                    <mxGeometry x="534.99" y="264.38" width="70" height="43.75" as="geometry"/>
                </mxCell>
                <mxCell id="lcH_O-FtXqilcOwLD9es-6" value="最终课程表" style="text;html=1;align=center;verticalAlign=middle;resizable=0;points=[];autosize=1;strokeColor=none;fillColor=none;" vertex="1" parent="1">
                    <mxGeometry x="454.99" y="259.38" width="80" height="30" as="geometry"/>
                </mxCell>
                <mxCell id="eh2dwwRqfR0x-HrD4XHn-2" style="edgeStyle=none;html=1;exitX=0.5;exitY=1;exitDx=0;exitDy=0;entryX=0.5;entryY=0;entryDx=0;entryDy=0;" edge="1" parent="1" source="eh2dwwRqfR0x-HrD4XHn-1" target="x4gaPoegwlLemnVy_RXM-3">
                    <mxGeometry relative="1" as="geometry"/>
                </mxCell>
                <mxCell id="eh2dwwRqfR0x-HrD4XHn-1" value="学生选课信息" style="html=1;dashed=0;whitespace=wrap;shape=partialRectangle;right=0;left=0;" vertex="1" parent="1">
                    <mxGeometry x="380" y="190" width="100" height="30" as="geometry"/>
                </mxCell>
            </root>
        </mxGraphModel>
    </diagram>
    <diagram id="i3VojXeTWnGCuBGroq7Y" name="第 4 页">
        <mxGraphModel dx="1055" dy="572" grid="1" gridSize="10" guides="1" tooltips="1" connect="1" arrows="1" fold="1" page="1" pageScale="1" pageWidth="827" pageHeight="1169" math="0" shadow="0">
            <root>
                <mxCell id="0"/>
                <mxCell id="1" parent="0"/>
                <mxCell id="0EH25BQuDs8llllnDWj2-1" style="edgeStyle=none;html=1;exitX=1;exitY=0.5;exitDx=0;exitDy=0;" edge="1" parent="1" source="zNDHDHNnSVjW58jOMqC1-1">
                    <mxGeometry relative="1" as="geometry">
                        <mxPoint x="240" y="404" as="targetPoint"/>
                    </mxGeometry>
                </mxCell>
                <mxCell id="zNDHDHNnSVjW58jOMqC1-1" value="学生" style="html=1;dashed=0;whitespace=wrap;" vertex="1" parent="1">
                    <mxGeometry x="100" y="381.87" width="70" height="43.75" as="geometry"/>
                </mxCell>
                <mxCell id="e3P-YdrCilDStN6y7Yyy-1" style="edgeStyle=none;html=1;exitX=1;exitY=0.5;exitDx=0;exitDy=0;" edge="1" parent="1" source="zNDHDHNnSVjW58jOMqC1-4">
                    <mxGeometry relative="1" as="geometry">
                        <mxPoint x="360" y="404" as="targetPoint"/>
                    </mxGeometry>
                </mxCell>
                <mxCell id="zNDHDHNnSVjW58jOMqC1-4" value="2.1&lt;br&gt;选课" style="shape=ellipse;html=1;dashed=0;whitespace=wrap;aspect=fixed;perimeter=ellipsePerimeter;" vertex="1" parent="1">
                    <mxGeometry x="240" y="370.62" width="66.25" height="66.25" as="geometry"/>
                </mxCell>
                <mxCell id="sK6hGNhvT7HNtD4ZMOzV-1" style="edgeStyle=none;html=1;exitX=0.5;exitY=0;exitDx=0;exitDy=0;" edge="1" parent="1" source="zNDHDHNnSVjW58jOMqC1-5">
                    <mxGeometry relative="1" as="geometry">
                        <mxPoint x="275" y="440" as="targetPoint"/>
                    </mxGeometry>
                </mxCell>
                <mxCell id="zNDHDHNnSVjW58jOMqC1-5" value="F3&lt;span style=&quot;white-space: pre;&quot;&gt;&#9;&lt;/span&gt;学生可选课程" style="html=1;dashed=0;whitespace=wrap;shape=mxgraph.dfd.dataStoreID;align=left;spacingLeft=3;points=[[0,0],[0.5,0],[1,0],[0,0.5],[1,0.5],[0,1],[0.5,1],[1,1]];" vertex="1" parent="1">
                    <mxGeometry x="219.69" y="480" width="110" height="30" as="geometry"/>
                </mxCell>
                <mxCell id="zNDHDHNnSVjW58jOMqC1-6" style="edgeStyle=none;html=1;exitX=0.5;exitY=1;exitDx=0;exitDy=0;" edge="1" parent="1" source="zNDHDHNnSVjW58jOMqC1-7">
                    <mxGeometry relative="1" as="geometry">
                        <mxPoint x="273.44" y="370.62" as="targetPoint"/>
                    </mxGeometry>
                </mxCell>
                <mxCell id="zNDHDHNnSVjW58jOMqC1-7" value="F4&lt;span style=&quot;white-space: pre;&quot;&gt;&#9;&lt;/span&gt;学生培养计划" style="html=1;dashed=0;whitespace=wrap;shape=mxgraph.dfd.dataStoreID;align=left;spacingLeft=3;points=[[0,0],[0.5,0],[1,0],[0,0.5],[1,0.5],[0,1],[0.5,1],[1,1]];" vertex="1" parent="1">
                    <mxGeometry x="219.69" y="310.62" width="106.87" height="30" as="geometry"/>
                </mxCell>
                <mxCell id="DI6C2hWRzFLuMT-1H8pa-1" value="选课通知" style="text;html=1;align=center;verticalAlign=middle;resizable=0;points=[];autosize=1;strokeColor=none;fillColor=none;" vertex="1" parent="1">
                    <mxGeometry x="170" y="380" width="70" height="30" as="geometry"/>
                </mxCell>
                <mxCell id="Oe9J7oXBsurJLtJJx-by-1" value="学生选课信息" style="html=1;dashed=0;whitespace=wrap;shape=partialRectangle;right=0;left=0;" vertex="1" parent="1">
                    <mxGeometry x="364" y="388.75" width="100" height="30" as="geometry"/>
                </mxCell>
            </root>
        </mxGraphModel>
    </diagram>
</mxfile>